<svg xmlns="http://www.w3.org/2000/svg" viewBox="0 0 300 100" className="w-full h-full">
  <defs>
    <linearGradient id="accentGrad" x1="0%" y1="0%" x2="100%" y2="100%">
      <stop offset="0%" style="stop-color:#38BDF8"/>
      <stop offset="100%" style="stop-color:#818CF8"/>
    </linearGradient>
    <linearGradient id="starGrad" x1="0%" y1="0%" x2="100%" y2="100%">
      <stop offset="0%" style="stop-color:#FBBF24"/>
      <stop offset="100%" style="stop-color:#F97316"/>
    </linearGradient>
  </defs>
  <text x="26" y="56"
        fontFamily="'Georgia', 'Times New Roman', serif"
        fontSize="38" fontWeight="700" letterSpacing="-0.5" fill="currentColor">
    <tspan fill="currentColor">Lec</tspan><tspan fill="url(#accentGrad)">Rate</tspan>
  </text>
  <g transform="translate(26, 68)">
    <polygon points="8,0 9.8,5.5 15.5,5.5 11,9 12.8,14.5 8,11 3.2,14.5 5,9 0.5,5.5 6.2,5.5"
             fill="url(#starGrad)"/>
    <polygon points="26,0 27.8,5.5 33.5,5.5 29,9 30.8,14.5 26,11 21.2,14.5 23,9 18.5,5.5 24.2,5.5"
             fill="url(#starGrad)"/>
    <polygon points="44,0 45.8,5.5 51.5,5.5 47,9 48.8,14.5 44,11 39.2,14.5 41,9 36.5,5.5 42.2,5.5"
             fill="none" stroke="url(#starGrad)" strokeWidth="1.2" opacity="0.6"/>
    <clipPath id="halfClip">
      <rect x="36" y="0" width="8" height="15"/>
    </clipPath>
    <polygon points="44,0 45.8,5.5 51.5,5.5 47,9 48.8,14.5 44,11 39.2,14.5 41,9 36.5,5.5 42.2,5.5"
             fill="url(#starGrad)" clipPath="url(#halfClip)" opacity="0.6"/>
  </g>
  <text x="90" y="79"
        fontFamily="'Courier New', monospace"
        fontSize="10" fill="#94A3B8" letterSpacing="2.2" className="hidden sm:block">
    RATE · SHARE · LEARN
  </text>
</svg>
